<?xml version="1.0" encoding="UTF-8"?>
<svg width="256px" height="256px" viewBox="0 0 256 256" version="1.1" xmlns="http://www.w3.org/2000/svg">
    <g fill="none" fill-rule="evenodd">
        <rect fill="#2EAD33" x="0" y="0" width="256" height="256" rx="20"/>
        <path d="M172.734 51.517c7.591 0 13.79 6.147 13.79 13.793 0 7.646-6.199 13.793-13.79 13.793-7.591 0-13.79-6.147-13.79-13.793 0-7.646 6.199-13.793 13.79-13.793zm-89.468 0c7.591 0 13.79 6.147 13.79 13.793 0 7.646-6.199 13.793-13.79 13.793-7.591 0-13.79-6.147-13.79-13.793 0-7.646 6.199-13.793 13.79-13.793zm44.734 0c7.591 0 13.79 6.147 13.79 13.793 0 7.646-6.199 13.793-13.79 13.793-7.591 0-13.79-6.147-13.79-13.793 0-7.646 6.199-13.793 13.79-13.793z" fill="#FFFFFF"/>
        <path d="M128 110.345c30.364 0 55.172 24.588 55.172 55.172 0 30.584-24.808 55.172-55.172 55.172-30.364 0-55.172-24.588-55.172-55.172 0-30.584 24.808-55.172 55.172-55.172zm0 13.793c-22.773 0-41.379 18.441-41.379 41.379 0 22.938 18.606 41.379 41.379 41.379 22.773 0 41.379-18.441 41.379-41.379 0-22.938-18.606-41.379-41.379-41.379z" fill="#FFFFFF" fill-rule="nonzero"/>
    </g>
</svg>
