<svg width="26" height="26" viewBox="0 0 26 26" fill="none" xmlns="http://www.w3.org/2000/svg">
<circle cx="13" cy="13" r="12.1162" stroke="white" stroke-width="1.7677"/>
<path d="M7.40234 18.1714C6.71417 18.1714 6.14965 18.0641 5.70879 17.8495C5.26793 17.6241 4.93998 17.329 4.72492 16.9642C4.50987 16.5994 4.40234 16.197 4.40234 15.7571C4.40234 15.0167 4.69267 14.4158 5.27331 13.9544C5.85395 13.493 6.72492 13.2623 7.88621 13.2623H9.91846V13.0692C9.91846 12.5219 9.76255 12.1195 9.45072 11.862C9.13889 11.6045 8.7518 11.4757 8.28943 11.4757C7.87008 11.4757 7.50449 11.5777 7.19266 11.7815C6.88083 11.9747 6.68728 12.2644 6.61202 12.6507H4.59589C4.64965 12.0713 4.8432 11.5669 5.17654 11.1377C5.52062 10.7085 5.96148 10.3813 6.49911 10.1559C7.03675 9.91987 7.6389 9.80184 8.30556 9.80184C9.44534 9.80184 10.3432 10.0862 10.9991 10.6549C11.655 11.2236 11.983 12.0283 11.983 13.0692V17.9782H10.2249L10.0314 16.6906C9.7948 17.1198 9.46147 17.4739 9.03136 17.7529C8.61201 18.0319 8.069 18.1714 7.40234 18.1714ZM7.87008 16.5618C8.46147 16.5618 8.91846 16.3687 9.24104 15.9824C9.57437 15.5961 9.78405 15.1186 9.87007 14.5499H8.11201C7.56363 14.5499 7.17115 14.6519 6.9346 14.8557C6.69804 15.0489 6.57976 15.2903 6.57976 15.58C6.57976 15.8912 6.69804 16.1326 6.9346 16.3043C7.17115 16.476 7.48298 16.5618 7.87008 16.5618Z" fill="white"/>
<path d="M17.7444 18.1714C17.1423 18.1714 16.6154 18.0587 16.1638 17.8334C15.7122 17.608 15.3466 17.2915 15.067 16.8837L14.8412 17.9782H13.0025V6.38965H15.067V11.1377C15.3251 10.7836 15.6638 10.4725 16.0832 10.2042C16.5133 9.93596 17.067 9.80184 17.7444 9.80184C18.4971 9.80184 19.1692 9.98425 19.7606 10.3491C20.352 10.7139 20.8197 11.2129 21.1638 11.8459C21.5079 12.479 21.6799 13.1979 21.6799 14.0027C21.6799 14.8075 21.5079 15.5264 21.1638 16.1595C20.8197 16.7818 20.352 17.2754 19.7606 17.6402C19.1692 17.9943 18.4971 18.1714 17.7444 18.1714ZM17.309 16.3687C17.9649 16.3687 18.5079 16.1487 18.938 15.7088C19.3681 15.2688 19.5832 14.7002 19.5832 14.0027C19.5832 13.3052 19.3681 12.7312 18.938 12.2805C18.5079 11.8298 17.9649 11.6045 17.309 11.6045C16.6423 11.6045 16.0939 11.8298 15.6638 12.2805C15.2445 12.7204 15.0348 13.2891 15.0348 13.9866C15.0348 14.6841 15.2445 15.2581 15.6638 15.7088C16.0939 16.1487 16.6423 16.3687 17.309 16.3687Z" fill="white"/>
</svg>
