<svg width="18" height="18" viewBox="0 0 18 18" fill="none" xmlns="http://www.w3.org/2000/svg">
<g clip-path="url(#clip0_1200_1479)">
<path fill-rule="evenodd" clip-rule="evenodd" d="M9 18C13.9706 18 18 13.9706 18 9C18 4.02944 13.9706 0 9 0C4.02944 0 0 4.02944 0 9C0 13.9706 4.02944 18 9 18ZM13.0454 10.6848L9.4545 14.2757C9.20345 14.5268 8.79642 14.5268 8.54537 14.2757L4.9545 10.6848C4.54953 10.2798 4.83636 9.58739 5.40908 9.58739H7.71422V4.82143C7.71422 4.11135 8.28986 3.53571 8.99994 3.53571C9.71002 3.53571 10.2857 4.11135 10.2857 4.82143V9.58739H12.5908C13.1635 9.58739 13.4504 10.2798 13.0454 10.6848Z" fill="white"/>
</g>
<defs>
<clipPath id="clip0_1200_1479">
<rect width="18" height="18" fill="white"/>
</clipPath>
</defs>
</svg>
